# xmcd
#
# Track frame offsets:
# 150
# 5550
# 28147
# 43595
# 60589
# 84457
# 106492
# 123895
# 151255
# 170390
# 189100
# 213960
# 237360
# 258767
# 283225
#
# Disc length: 4067 seconds
#
#
# Revision: 0
# Processed by: cddbd v1.5.1PL2 Copyright (c) Steve Scherf et al.
# Submitted via: FreeRIP 2.945 
#
DISCID=c00fe10f
DTITLE=Banda Kadoshi - Novo Tempo
DYEAR=1900
DGENRE=Christian Rap
TTITLE0=Interlúdio
TTITLE1=Os Guerreiros
TTITLE2=Lugar de Paz
TTITLE3=Tempo de Adorar
TTITLE4=Muquitanhe
TTITLE5=Novo Tempo
TTITLE6=Jardim de Deus
TTITLE7=Kadoshi vai lhe dizer
TTITLE8=Deus te ama
TTITLE9=Vai em frente
TTITLE10=Kadoshi quer dizer
TTITLE11=Vai na Paz
TTITLE12=Sou Jesus
TTITLE13=Mais Perto de Ti
TTITLE14=Espírito de Deus
EXTD=
EXTT0=
EXTT1=
EXTT2=
EXTT3=
EXTT4=
EXTT5=
EXTT6=
EXTT7=
EXTT8=
EXTT9=
EXTT10=
EXTT11=
EXTT12=
EXTT13=
EXTT14=
PLAYORDER=
